<mxfile host="app.diagrams.net" modified="2024-05-03T14:05:06.959Z" agent="Mozilla/5.0 (Windows NT 10.0; Win64; x64) AppleWebKit/537.36 (KHTML, like Gecko) Chrome/124.0.0.0 Safari/537.36" etag="T4j019SO80yS6leoResS" version="24.3.1" type="device">
  <diagram name="Страница — 1" id="dbWVuoAAaMe3eNP6coIP">
    <mxGraphModel dx="2261" dy="756" grid="1" gridSize="10" guides="1" tooltips="1" connect="1" arrows="1" fold="1" page="1" pageScale="1" pageWidth="827" pageHeight="1169" math="0" shadow="0">
      <root>
        <mxCell id="0" />
        <mxCell id="1" parent="0" />
        <mxCell id="S39HjuMHeKyCxvY_v-uh-1" value="&amp;nbsp;регистрация пациетов" style="rounded=0;whiteSpace=wrap;html=1;" parent="1" vertex="1">
          <mxGeometry x="240" y="330" width="240" height="130" as="geometry" />
        </mxCell>
        <mxCell id="S39HjuMHeKyCxvY_v-uh-6" value="Должностные инструкции регистратора клиники." style="text;whiteSpace=wrap;" parent="1" vertex="1">
          <mxGeometry x="130" y="115" width="150" height="60" as="geometry" />
        </mxCell>
        <mxCell id="S39HjuMHeKyCxvY_v-uh-7" value="Алгоритм действий&lt;div&gt;&amp;nbsp;регистратора клиники.&lt;/div&gt;" style="text;html=1;align=center;verticalAlign=middle;resizable=0;points=[];autosize=1;strokeColor=none;fillColor=none;rotation=0;" parent="1" vertex="1">
          <mxGeometry x="300" y="125" width="150" height="40" as="geometry" />
        </mxCell>
        <mxCell id="S39HjuMHeKyCxvY_v-uh-10" value="" style="endArrow=classic;html=1;rounded=0;entryX=0.5;entryY=0.143;entryDx=0;entryDy=0;entryPerimeter=0;exitX=1;exitY=0;exitDx=0;exitDy=0;" parent="1" edge="1">
          <mxGeometry width="50" height="50" relative="1" as="geometry">
            <mxPoint x="290" y="109.99" as="sourcePoint" />
            <mxPoint x="290" y="330" as="targetPoint" />
          </mxGeometry>
        </mxCell>
        <mxCell id="S39HjuMHeKyCxvY_v-uh-11" value="" style="endArrow=classic;html=1;rounded=0;entryX=0.5;entryY=0.143;entryDx=0;entryDy=0;entryPerimeter=0;exitX=1;exitY=0;exitDx=0;exitDy=0;" parent="1" edge="1">
          <mxGeometry width="50" height="50" relative="1" as="geometry">
            <mxPoint x="460" y="109.99" as="sourcePoint" />
            <mxPoint x="460" y="330" as="targetPoint" />
          </mxGeometry>
        </mxCell>
        <mxCell id="S39HjuMHeKyCxvY_v-uh-13" value="" style="endArrow=classic;html=1;rounded=0;entryX=0.5;entryY=0.143;entryDx=0;entryDy=0;entryPerimeter=0;" parent="1" edge="1">
          <mxGeometry width="50" height="50" relative="1" as="geometry">
            <mxPoint x="-60" y="380" as="sourcePoint" />
            <mxPoint x="240" y="380.01" as="targetPoint" />
          </mxGeometry>
        </mxCell>
        <mxCell id="S39HjuMHeKyCxvY_v-uh-15" value="" style="endArrow=classic;html=1;rounded=0;entryX=0.5;entryY=0.143;entryDx=0;entryDy=0;entryPerimeter=0;" parent="1" edge="1">
          <mxGeometry width="50" height="50" relative="1" as="geometry">
            <mxPoint x="-80" y="440" as="sourcePoint" />
            <mxPoint x="240" y="440.01" as="targetPoint" />
          </mxGeometry>
        </mxCell>
        <mxCell id="S39HjuMHeKyCxvY_v-uh-16" value="Регистратор клиники." style="text;whiteSpace=wrap;" parent="1" vertex="1">
          <mxGeometry x="180" y="600" width="110" height="40" as="geometry" />
        </mxCell>
        <mxCell id="S39HjuMHeKyCxvY_v-uh-17" value="" style="endArrow=classic;html=1;rounded=0;entryX=0.25;entryY=1;entryDx=0;entryDy=0;" parent="1" edge="1">
          <mxGeometry width="50" height="50" relative="1" as="geometry">
            <mxPoint x="260" y="670" as="sourcePoint" />
            <mxPoint x="260" y="460" as="targetPoint" />
          </mxGeometry>
        </mxCell>
        <mxCell id="S39HjuMHeKyCxvY_v-uh-18" value="" style="endArrow=classic;html=1;rounded=0;entryX=0.25;entryY=1;entryDx=0;entryDy=0;" parent="1" edge="1">
          <mxGeometry width="50" height="50" relative="1" as="geometry">
            <mxPoint x="460" y="670" as="sourcePoint" />
            <mxPoint x="460" y="460" as="targetPoint" />
          </mxGeometry>
        </mxCell>
        <mxCell id="S39HjuMHeKyCxvY_v-uh-20" value="Компьютерная программа для записи на приём и оформления документов." style="text;whiteSpace=wrap;" parent="1" vertex="1">
          <mxGeometry x="300" y="590" width="170" height="80" as="geometry" />
        </mxCell>
        <mxCell id="S39HjuMHeKyCxvY_v-uh-22" value="Записанный на приём клиент." style="text;whiteSpace=wrap;" parent="1" vertex="1">
          <mxGeometry x="580" y="400" width="200" height="40" as="geometry" />
        </mxCell>
        <mxCell id="S39HjuMHeKyCxvY_v-uh-23" value="" style="endArrow=classic;html=1;rounded=0;exitX=0.992;exitY=0.562;exitDx=0;exitDy=0;exitPerimeter=0;" parent="1" edge="1">
          <mxGeometry width="50" height="50" relative="1" as="geometry">
            <mxPoint x="479.99999999999994" y="433.05999999999995" as="sourcePoint" />
            <mxPoint x="781.92" y="430" as="targetPoint" />
          </mxGeometry>
        </mxCell>
        <mxCell id="S39HjuMHeKyCxvY_v-uh-25" value="" style="endArrow=classic;html=1;rounded=0;exitX=0.992;exitY=0.562;exitDx=0;exitDy=0;exitPerimeter=0;" parent="1" edge="1">
          <mxGeometry width="50" height="50" relative="1" as="geometry">
            <mxPoint x="479.99999999999994" y="373.05999999999995" as="sourcePoint" />
            <mxPoint x="781.92" y="370" as="targetPoint" />
          </mxGeometry>
        </mxCell>
        <mxCell id="S39HjuMHeKyCxvY_v-uh-26" value="Оформленные документы (договор на оказание услуг, учек об оплате услуг и другие необходимые документы)." style="text;whiteSpace=wrap;" parent="1" vertex="1">
          <mxGeometry x="520" y="320" width="270" height="50" as="geometry" />
        </mxCell>
        <mxCell id="S39HjuMHeKyCxvY_v-uh-29" value="Звонок клиента в клинику или личный визит" style="text;whiteSpace=wrap;" parent="1" vertex="1">
          <mxGeometry x="-40" y="330" width="170" height="50" as="geometry" />
        </mxCell>
        <mxCell id="S39HjuMHeKyCxvY_v-uh-30" value="Необходимость оказания ветеринарной помощи животному." style="text;whiteSpace=wrap;" parent="1" vertex="1">
          <mxGeometry x="-60" y="390" width="200" height="40" as="geometry" />
        </mxCell>
      </root>
    </mxGraphModel>
  </diagram>
</mxfile>
